<svg width="501" height="73" viewBox="0 0 501 73" fill="none" xmlns="http://www.w3.org/2000/svg">
<path d="M0 14.2874C0.506428 14.3277 1.95673 14.7411 2.48404 14.8826L6.83086 16.0489L85 36.7778C75.2377 40.5301 65.3953 44.0825 55.4798 47.4323C57.5997 50.0995 60.5798 53.3396 62.8544 55.9612L76.9947 72.25C67.0932 67.8846 56.862 63.6857 46.8857 59.4285C43.6777 58.1831 40.1455 56.5542 36.9121 55.2075C36.0901 55.3959 34.822 55.8429 33.9763 56.1115L28.1168 57.993C21.6092 60.0925 14.4165 62.5139 7.90513 64.4232C8.88084 63.1044 9.93118 61.3699 10.8334 59.9683L20.7482 44.5623C21.6479 43.1651 22.8187 41.4484 23.6235 40.0214L54.3099 56.5306L37.5003 42.864C34.1169 40.1142 30.6604 37.1389 27.1875 34.5203C19.292 28.5671 11.2822 22.7301 3.36502 16.802C2.2497 15.9669 1.08357 15.1517 0 14.2874Z" fill="#ED0074"/>
<path d="M49.3369 0C49.6153 0.340309 55.5251 24.3447 56.1201 26.7088C55.5164 26.4133 54.4656 25.7142 53.8689 25.3412L49.691 22.7278C46.1263 20.512 42.4729 18.1573 38.8744 16.0155C41.5324 11.8131 44.3501 7.68592 47.0292 3.49459C47.7764 2.32581 48.5471 1.1409 49.3369 0Z" fill="#ED0074"/>
<path d="M117.554 62.6875C101.77 62.6875 92.145 57.067 92.145 43.9783V43.5163H106.62V45.1332C106.62 48.5978 107.852 49.5217 117.554 49.5217C126.331 49.5217 127.255 48.8288 127.255 46.519C127.255 44.6712 126.254 43.9013 122.02 43.3623L105.85 41.2065C96.2258 39.8976 91.375 34.7391 91.375 26.4239C91.375 18.1857 97.7657 9.5625 116.399 9.5625C132.799 9.5625 140.653 16.7228 140.653 28.2717V28.7337H126.177V27.5788C126.177 23.8832 124.561 22.6513 114.859 22.6513C107.467 22.6513 105.85 23.6522 105.85 25.885C105.85 27.5018 106.774 28.2717 109.546 28.6567L125.715 31.0435C138.343 32.8913 141.731 39.3587 141.731 45.9801C141.731 54.8342 134.955 62.6875 117.554 62.6875Z" fill="white"/>
<path d="M172.113 61.9176H157.638V23.3442H139.39V10.3324H190.284V23.3442H172.113V61.9176Z" fill="white"/>
<path d="M193.858 61.9176H177.611L199.863 10.3324H220.575L242.904 61.9176H226.273L222.346 52.3705H197.861L193.858 61.9176ZM206.331 32.1214L203.328 39.3587H217.033L214.031 32.1214L210.643 23.4212H209.642L206.331 32.1214Z" fill="white"/>
<path d="M254.309 61.9176H239.834V10.3324H269.94C283.568 10.3324 290.729 16.0299 290.729 26.1159C290.729 34.2772 286.648 39.1277 276.793 40.3596V41.1295C282.105 42.5154 283.799 45.0562 285.724 48.9828L292.115 61.9176H275.407L269.247 49.2908C267.399 45.4411 265.859 44.3632 260.238 44.3632H254.309V61.9176ZM254.309 23.3442V33.5842H269.786C274.021 33.5842 275.561 32.8143 275.561 28.4257C275.561 24.3451 274.021 23.3442 269.786 23.3442H254.309Z" fill="white"/>
<path d="M314.751 62.6875C298.504 62.6875 289.034 52.2165 289.034 36.125C289.034 20.0335 300.121 9.5625 318.908 9.5625C336.387 9.5625 346.781 17.2618 346.781 30.0426V30.5815H330.612V30.0426C330.612 25.269 327.686 23.4212 318.523 23.4212C307.436 23.4212 304.433 25.885 304.433 36.125C304.433 46.365 307.282 48.8288 317.753 48.8288C328.456 48.8288 331.536 48.2899 332.229 44.3632H316.368V33.7382H346.858V61.9176H333.384V50.9076H332.614C331.228 56.913 326.839 62.6875 314.751 62.6875Z" fill="white"/>
<path d="M359.707 61.9176H343.461L365.713 10.3324H386.425L408.754 61.9176H392.123L388.196 52.3705H363.711L359.707 61.9176ZM372.18 32.1214L369.178 39.3587H382.883L379.88 32.1214L376.492 23.4212H375.491L372.18 32.1214Z" fill="white"/>
<path d="M455.115 61.9176H405.299V48.9058L432.786 24.3451V23.3442H405.761V10.3324H454.653V23.3442L425.934 47.9049V48.9058H455.115V61.9176Z" fill="white"/>
<path d="M500.564 61.9176H454.751V10.3324H500.564V23.3442H469.226V29.5036H499.409V42.4384H469.226V48.9058H500.564V61.9176Z" fill="white"/>
</svg>
