<svg id="pxlwz" xmlns="http://www.w3.org/2000/svg" shape-rendering="crispEdges" viewBox="0 0 64 64">
  <style>
    #pxlwz {overflow: hidden;outline: none;box-shadow: none;height: 100%;}.pw-menu [class*="pw-skill"], .pw-menu [class*="pw-menu"] {cursor: pointer;}.pw-menu-toggle:hover .pw-eye-lid-top {animation: none;transform: translateY(1px);}*:focus {outline: none;box-shadow: none;}.pw-price-chat, .pw-digits, .token, .price-down, .price-up, .pw-oom, .pw-love {opacity: 0;transition: all 1s ease;}.tell-price.down .price-down, .tell-price.up .price-up, .tell-price .pw-price-chat, .tell-price .token {opacity: 1;}.tell-price .pw-skill-tell-price {pointer-events: none;}.pw-menu {opacity: 0;pointer-events: none;transition: 0.6s ease;transform: translate3d(0, 4px, 0);}.pw-menu-in .pw-menu {opacity: 1;pointer-events: auto;transform: translate3d(0, 0, 0);}.pw-eyes-mouth {transition: all 0.5s ease;}.cast-spell .pw-eyes-mouth {animation: pw-anim-cast-spell 2.5s ease-in-out infinite;}@keyframes pw-anim-cast-spell {0% {fill: #00fff5;}50% {fill: #ffffff;}100% {fill: #00fff5;}}.cast-spell .wizard {animation: pw-anim-levitate-wiz 3.5s ease-in-out infinite;}@keyframes pw-anim-levitate-wiz {0% {transform: translate3d(0, 0, 0);}50% {transform: translate3d(0, -3px, 0);}100% {transform: translate3d(0, 0s, 0);}}.cast-spell .shadow {animation: pw-anim-shadow 3.5s ease-in-out infinite;transform-origin: center;transform-box: fill-box;}@keyframes pw-anim-shadow {0% {transform: scale3d(1, 1, 1);}50% {transform: scale3d(0.85, 1, 1);}100% {transform: scale3d(1, 1, 1);}}.artifact {animation: pw-anim-levitate 1.5s ease-in-out -0.9891s infinite;}@keyframes pw-anim-levitate {0% {transform: translate3d(0, 0, 0);}50% {transform: translate3d(0, -1px, 0);}100% {transform: translate3d(0, 0, 0);}}.oom .pw-price-chat, .oom .pw-oom {opacity: 1;}.pw-particles-x {animation: pw-anim-particles-x 1s steps(1) -0.8364s infinite;transform-origin: center;transform-box: fill-box;}@keyframes pw-anim-particles-x {0% {transform: scaleX(1);}50% {transform: scaleX(-1);}100% {transform: scaleX(1);}}.pw-particles-y {animation: pw-anim-particles-y 1s steps(1) -0.8364s infinite;transform-origin: center;transform-box: fill-box;}@keyframes pw-anim-particles-y {0% {transform: scaleY(1);}50% {transform: scaleY(-1);}100% {transform: scaleY(1);}}.pw-particles-xy {animation: pw-anim-particles-xy 1s steps(1) -0.8364s infinite;transform-origin: center;transform-box: fill-box;}@keyframes pw-anim-particles-xy {0% {transform: scaleY(1) scaleX(1);}50% {transform: scaleY(-1) scaleX(-1);}100% {transform: scaleY(1) scaleX(1);}}.pw-glow {animation: pw-anim-glow 4s infinite;}@keyframes pw-anim-glow {0% {opacity: 0.5;}50% {opacity: 1;}100% {opacity: 0.5;}}.pw-glow-66 {animation: pw-anim-glow-66 4s -0.1364s infinite;}@keyframes pw-anim-glow-66 {0% {opacity: 0.33;}50% {opacity: 0.66;}100% {opacity: 0.33;}}.pw-glow-33 {animation: pw-anim-glow-33 4s infinite;}@keyframes pw-anim-glow-33 {0% {opacity: 0.15;}50% {opacity: 0.33;}100% {opacity: 0.15;}}.pw-particles-wand {animation: pw-anim-particles-wand 1s steps(1) -0.8364s infinite;transform-origin: center;transform-box: fill-box;}@keyframes pw-anim-particles-wand {0% {transform: scaleX(1) translateY(-2px);}50% {transform: scaleX(-1) translateX(-2px);}100% {transform: scaleX(1) translateY(-2px);}}.pw-shake {animation: pw-anim-shake 3s -0.8364s ease-in;transform-origin: center;transform-box: fill-box;}@keyframes pw-anim-shake {0% {transform: translate(0.1px, 0.1px) rotate(0deg);}10% {transform: translate(-0.1px, -0.2px) rotate(-0.5deg);}20% {transform: translate(-0.3px, 0px) rotate(0.5deg);}30% {transform: translate(0.3px, 0.2px) rotate(0deg);}40% {transform: translate(0.1px, -0.1px) rotate(0.5deg);}50% {transform: translate(-0.1px, 0.2px) rotate(-0.5deg);}60% {transform: translate(-0.3px, 0.1px) rotate(0deg);}70% {transform: translate(0.3px, 0.1px) rotate(-0.5deg);}80% {transform: translate(-0.1px, -0.1px) rotate(0.5deg);}90% {transform: translate(0.1px, 0.2px) rotate(0deg);}100% {transform: translate(0.1px, 0.1px) rotate(0deg);}}.pw-single-eye {animation: pw-anim-single-eye 4.5s ease-in-out infinite;transform-origin: center;transform-box: fill-box;}@keyframes pw-anim-single-eye {0%, 30% {transform: translate(1px, 0);}30.1%, 50% {transform: translate(0, 0);}50.1%, 80% {transform: translate(-1px, 0);}80.1%, 90% {transform: translate(0, 1px);}90.1%, 100% {transform: translate(0, 0);}}.pw-double-eye {animation: pw-anim-double-eye 4.5s ease-in-out infinite;transform-origin: center;transform-box: fill-box;}@keyframes pw-anim-double-eye {0%, 30% {transform: translate(-1px, 0);}30.1%, 50% {transform: translate(0, 0);}50.1%, 60% {transform: translate(0, -1px);}60.1%, 100% {transform: translate(0, 0);}}.pw-flat-eye {animation: pw-anim-flat-eye 4s steps(1) -0.8364s infinite;}@keyframes pw-anim-flat-eye {0% {transform: translateY(0);}25% {transform: translateX(-1px);}40% {transform: translateY(0);}75% {transform: translateX(-1px);}80%, 100% {transform: translateX(0);}}.pw-flicker {animation: pw-anim-flicker 2s steps(1) -0.8364s infinite;}@keyframes pw-anim-flicker {0% {opacity: 1;}10% {opacity: 0;}20% {opacity: 1;}50% {opacity: 0;}60% {opacity: 1;}80% {opacity: 0;}100% {opacity: 1;}}.pw-wink {animation: pw-anim-wink 3s steps(1) -0.8364s infinite;}@keyframes pw-anim-wink {0% {opacity: 1;}50% {opacity: 0;}100% {opacity: 1;}}.pw-rainbow, .rainbow-beard .pw-rainbow path {animation: pw-anim-rainbow 20s linear -4.3865s infinite;}@keyframes pw-anim-rainbow {0% {fill: #92241e;}11.1111% {fill: #c587a1;}22.2222% {fill: #dd8663;}33.3333% {fill: #e5b53b;}44.4444% {fill: #d0d961;}55.5555% {fill: #b6e387;}66.6666% {fill: #72d2c7;}77.7777% {fill: #38a8de;}88.8888% {fill: #006cca;}100% {fill: #92241e;}}.pw-wings {animation: pw-anim-wings 1s steps(1) -0.8364s infinite;transform-origin: center;transform-box: fill-box;}@keyframes pw-anim-wings {0% {transform: translateY(0);}25% {transform: translateY(1px);}50% {transform: translateY(0);}75% {transform: translateY(1px);}100% {transform: translateY(0);}}.hat {transition: all 1s ease;}.hat-gone .hat {opacity: 0;}.tell-price .spoon {animation: pw-anim-shake 0.5s -0.8364s 4;}.tell-price .pw-spoon-head {animation: pw-anim-spoon-head 0.25s steps(1) 2s forwards;transform-origin: bottom;transform-box: fill-box;}@keyframes pw-anim-spoon-head {0% {transform: rotate(0) translateY(0);}50% {transform: rotate(45deg) translate(0px, 2px);}100% {transform: rotate(90deg) translate(1px, 3px);}}.pw-staff-light-left {animation: pw-anim-staff-light-left 2s steps(1) infinite;transform-origin: center;transform-box: fill-box;}@keyframes pw-anim-staff-light-left {0% {transform: translate(-1px, 1px);}25% {transform: translate(-0.5px, 0.5px);}50% {transform: translate(0px, 0px);}75% {transform: translate(-0.5px, 0.5px);}100% {transform: translate(-0.5px, 0.5px);}}.pw-staff-light-right {animation: pw-anim-staff-light-right 2s steps(1) infinite;transform-origin: center;transform-box: fill-box;}@keyframes pw-anim-staff-light-right {0% {transform: translate(1px, 1px);}25% {transform: translate(0.5px, 0.5px);}50% {transform: translate(0px, 0px);}75% {transform: translate(0.5px, 0.5px);}100% {transform: translate(0.5px, 0.5px);}}.pw-sh-chat, .sorting-hat > .pw-flicker, path[class|="pw-sh-line"] {opacity: 0;animation: none;}.sh-talking .pw-flicker {animation: pw-anim-flicker 2s steps(1) -0.8364s infinite;}.sh-talking .pw-sh-chat {opacity: 1;}.sh-talking .pw-sh-line-1 {animation: pw-anim-sh-talking 3s steps(1) -0.8364s;}.sh-talking .pw-sh-line-2 {animation: pw-anim-sh-talking 3s steps(1) 1s;}.sh-talking .pw-sh-line-3 {animation: pw-anim-sh-talking 3s steps(1) 4s;}.sh-talking .pw-sh-line-4 {animation: pw-anim-sh-talking 3s steps(1) 7s;}.sh-talking .pw-sh-line-5 {animation: pw-anim-sh-talking 1s steps(1) 10s;}.sh-talking .pw-sh-line-6 {animation: pw-anim-sh-talking 1.5s steps(1) 11s;}.sh-talking .pw-sh-line-7 {animation: pw-anim-sh-talking 2s steps(1) 14s;}.sh-talking .pw-sh-line-8 {animation: pw-anim-sh-talking 2s steps(1) 16s;}@keyframes pw-anim-sh-talking {0% {opacity: 0;}50% {opacity: 1;}100% {opacity: 0;}}.dragon-egg:hover {animation: pw-anim-shake 3s -0.8364s infinite;transform-origin: center;transform-box: fill-box;}@keyframes pw-anim-shake {0% {transform: translate(0.1px, 0.1px) rotate(0deg);}10% {transform: translate(-0.1px, -0.2px) rotate(-0.5deg);}20% {transform: translate(-0.3px, 0px) rotate(0.5deg);}30% {transform: translate(0.3px, 0.2px) rotate(0deg);}40% {transform: translate(0.1px, -0.1px) rotate(0.5deg);}50% {transform: translate(-0.1px, 0.2px) rotate(-0.5deg);}60% {transform: translate(-0.3px, 0.1px) rotate(0deg);}70% {transform: translate(0.3px, 0.1px) rotate(-0.5deg);}80% {transform: translate(-0.1px, -0.1px) rotate(0.5deg);}90% {transform: translate(0.1px, 0.2px) rotate(0deg);}100% {transform: translate(0.1px, 0.1px) rotate(0deg);}}.pw-dragon-wings {animation: pw-anim-dragon-wings 2s steps(1) -0.8364s infinite;}@keyframes pw-anim-dragon-wings {0% {transform: translateY(0);}25% {transform: translateY(1px);}35% {transform: translateY(0);}45% {transform: translateY(1px);}55%, 100% {transform: translateY(0);}}.pw-eye-lid-top {animation: pw-anim-eye-lid-top 4s steps(1) -0.8364s infinite;}@keyframes pw-anim-eye-lid-top {0% {transform: translateY(0);}10% {transform: translateY(1px);}15%, 100% {transform: translateY(0);}}.pw-eye-lid-bottom {animation: pw-anim-eye-lid-bottom 4s steps(1) -0.8364s infinite;}@keyframes pw-anim-eye-lid-bottom {0% {transform: translateY(0);}10% {transform: translateY(-1px);}15%, 100% {transform: translateY(0);}}.pw-wh-wave-1 {animation: pw-anim-wh-waves 4s steps(1) 0s infinite;}.pw-wh-wave-2 {animation: pw-anim-wh-waves 4s steps(1) -1s infinite;}.pw-wh-wave-3 {animation: pw-anim-wh-waves 4s steps(1) -2s infinite;}.pw-wh-wave-4 {animation: pw-anim-wh-waves 4s steps(1) -3s infinite;}@keyframes pw-anim-wh-waves {0% {fill: #92d3ff;}25% {fill: #61a2ff;}50% {fill: #4192c3;}75% {fill: #305182;}100% {fill: #92d3ff;}}.pw-bulb-off {opacity: 0;}.bulb-on {opacity: 1;}.bulb-on ~ .pw-glow-wire {fill: #e35100;}.pw-rabbit-head {animation: pw-anim-rabbit-head 4s steps(1) -0.8364s infinite;}@keyframes pw-anim-rabbit-head {0% {transform: translateY(7px);}5% {transform: translateY(5px);}10% {transform: translateY(2px);}15% {transform: translateY(0);}80% {transform: translateY(2px);}85% {transform: translateY(5px);}90%, 100% {transform: translateY(7px);}}.pw-nature-robe-flower-1 {animation: pw-anim-nature-robe-flower 8s -0.8364s infinite alternate;}.pw-nature-robe-flower-2 {animation: pw-anim-nature-robe-flower 8s 0.25s infinite alternate;}.pw-nature-robe-flower-3 {animation: pw-anim-nature-robe-flower 8s 0.5s infinite alternate;}.pw-nature-robe-flower-4 {animation: pw-anim-nature-robe-flower 8s 0.75s infinite alternate;}.pw-nature-robe-flower-5 {animation: pw-anim-nature-robe-flower 8s 1s infinite alternate;}@keyframes pw-anim-nature-robe-flower {0%, 50% {opacity: 0;}51%, 100% {opacity: 1;}}g[class*="pw-daisy"] {opacity: 0;}.tell-price .pw-daisy-1, .cast-spell .pw-daisy-1 {animation: pw-anim-daisy -0.8364s forwards;}.tell-price .pw-daisy-2, .cast-spell .pw-daisy-2 {animation: pw-anim-daisy 0.5s forwards;}.tell-price .pw-daisy-3, .cast-spell .pw-daisy-3 {animation: pw-anim-daisy 1s forwards;}.tell-price .pw-daisy-4, .cast-spell .pw-daisy-4 {animation: pw-anim-daisy 1.5s forwards;}.tell-price .pw-daisy-5, .cast-spell .pw-daisy-5 {animation: pw-anim-daisy 2s forwards;}@keyframes pw-anim-daisy {0%, 50% {opacity: 0;}51%, 100% {opacity: 1;}}.pw-clown-fish-top {animation: pw-anim-clown-fish-top 6s steps(1) -0.8364s infinite;transform-origin: center;transform-box: fill-box;}.pw-clown-fish-bottom {animation: pw-anim-clown-fish-bottom 6s steps(1) -0.8364s infinite;transform-origin: center;transform-box: fill-box;}@keyframes pw-anim-clown-fish-top {0% {transform: translateX(0) rotate(0);}12.5% {transform: translateX(2px) rotate(0);}25% {transform: translateX(4px) rotate(0);}37.5% {transform: translateX(6px) rotate(0);}50% {transform: translateX(6px) rotate(180deg);}62.5% {transform: translateX(4px) rotate(180deg);}75% {transform: translateX(2px) rotate(180deg);}87.5% {transform: translateX(0) rotate(180deg);}100% {transform: translateX(0) rotate(0);}}@keyframes pw-anim-clown-fish-bottom {0% {transform: translateX(0) rotate(0);}12.5% {transform: translateX(-2px) rotate(0);}25% {transform: translateX(-4px) rotate(0);}37.5% {transform: translateX(-6px) rotate(0);}50% {transform: translateX(-6px) rotate(180deg);}62.5% {transform: translateX(-4px) rotate(180deg);}75% {transform: translateX(-2px) rotate(180deg);}87.5% {transform: translateX(0) rotate(180deg);}100% {transform: translateX(0) rotate(0);}}.pw-cyberglow {animation: pw-anim-cyberglow 4s infinite;}@keyframes pw-anim-cyberglow {0% {opacity: 0.5;fill: #a2fff3;}50% {opacity: 1;fill: #16efaa;}100% {opacity: 0.5;fill: #a2fff3;}}.pw-orb-top {animation: pw-anim-orb-top 3s ease-in-out -0.9891s infinite;}.pw-orb-middle {animation: pw-anim-orb-middle 3s ease-in-out -0.9891s infinite;}.pw-orb-bottom {animation: pw-anim-orb-bottom 3s ease-in-out -0.9891s infinite;}@keyframes pw-anim-orb-top {0% {transform: translate(0);}50% {transform: translate(-3px);}100% {transform: translate(0);}}@keyframes pw-anim-orb-middle {0% {transform: translate3d(0,0,0);}50% {transform: translate3d(-1px,-0.5px,0);}100% {transform: translate3d(0,0,0);}}@keyframes pw-anim-orb-bottom {0% {transform: translate(0);}50% {transform: translate3d(2px,0.5px,0);}100% {transform: translate(0);}}.pw-bolt-first {animation: pw-anim-bolts 2s steps(1) -0.8364s reverse infinite;}.pw-bolt-last {animation: pw-anim-bolts 2s steps(1) -1.8364s infinite;}@keyframes pw-anim-bolts {0% {opacity: 1;}10% {opacity: 0;}20% {opacity: 1;}50% {opacity: 0;}60% {opacity: 1;}80% {opacity: 0;}100% {opacity: 1;}}.pw-hat-feather {animation: pw-anim-hat-feather 1.5s steps(1) -0.8364s infinite;transform-origin: bottom;transform-box: fill-box;}@keyframes pw-anim-hat-feather {0% {transform: rotate(2deg);}50% {transform: rotate(-5deg);}100% {transform: rotate(2deg);}}.nature-robe-flower-1 {animation: tw-anim-nature-robe-flower 8s -0.8364s infinite alternate;}.nature-robe-flower-2 {animation: tw-anim-nature-robe-flower 8s .25s infinite alternate;}.nature-robe-flower-3 {animation: tw-anim-nature-robe-flower 8s .5s infinite alternate;}.nature-robe-flower-4 {animation: tw-anim-nature-robe-flower 8s .75s infinite alternate;}.nature-robe-flower-5 {animation: tw-anim-nature-robe-flower 8s 1s infinite alternate;}@keyframes tw-anim-nature-robe-flower {0%, 50% {opacity: 0;}51%, 100% {opacity: 1;}}#pxlwz {transition: stroke-width 0.15s ease-out;}#pxlwz .wizard.flash {stroke-width: 200;stroke-opacity: 0.5;stroke: #fff;}.the-hourglass {animation: pw-anim-levitate 1.5s ease-in-out -0.1s infinite;}.pw-saber-light {opacity: 0;transition: all 0.5s ease-out;pointer-events: none;}.saber-on .pw-saber-light {opacity: 1;}.saber-on .pw-saber-button {fill: #51A200;}.tell-price .samba, .cast-spell .samba {animation: pw-anim-samba 0.25s steps(1) -0.8364s infinite;transform-origin: bottom;transform-box: view-box;}@keyframes pw-anim-samba {0% {transform: rotate(-1deg);}50% {transform: rotate(1deg);}100% {transform: rotate(-1deg);}}.vanished .wizard, .vanished .artifact, .vanished .character-shadow {animation: pw-anim-vanish 1s ease-in forwards;transition: all 1s ease-in;}@keyframes pw-anim-vanish {0% {filter: blur(0);opacity: 1;}33% {filter: blur(2px);opacity: 0.5;}66% {filter: blur(6px);opacity: 0.3;}100% {filter: blur(10px);opacity: 0.1;}}.halo {animation: pw-anim-levitate-halo 3.5s ease-in-out -0.8364s infinite;}@keyframes pw-anim-levitate-halo {0% {transform: translate3d(0, 0, 0);}50% {transform: translate3d(0, .5px, 0);}100% {transform: translate3d(0, 0, 0);}}.pw-network-beam-1, .pw-network-beam-2, .pw-network-beam-3 {opacity: 0;}.network-engaged .pw-network-beam-1, .network-engaged .pw-network-beam-2, .network-engaged .pw-network-beam-3 {animation: pw-anim-network-beam 3s -0.8364s infinite;}.network-engaged .pw-network-beam-2 {animation-delay: 0s }.network-engaged .pw-network-beam-3 {animation-delay: 1s;}@keyframes pw-anim-network-beam {0% {opacity: 0;}50% {opacity: 1;}}.pw-hero-wizard-eye-glow {animation: pw-anim-hero-wiz-glow 4s infinite;}@keyframes pw-anim-hero-wiz-glow {0% {fill: #CCFFF8;}50% {fill: #E35100;}100% {fill: #CCFFF8;}}.pw-blood-drip {animation: pw-anim-blood-drip 1.5s steps(1) -0.18364s infinite;}@keyframes pw-anim-blood-drip {0% {transform: translateY(0);}25% {transform: translateY(2px);}50% {transform: translateY(4px);opacity: .75;}75% {transform: translateY(6px);opacity: .50;}100% {transform: translateY(7px);opacity: .25;}}.pw-tear-left {animation: pw-anim-rekt-tears 2s steps(1) -0.78364s infinite;}.pw-tear-right {animation: pw-anim-rekt-tears 2s steps(1) -0.18364s infinite;}@keyframes pw-anim-rekt-tears {0% {opacity: 0;}25% {opacity: .5;}50% {opacity: 1;}75% {transform: translateY(1px);opacity: 1;}100% {transform: translateY(2px);opacity: 1;}}
  </style>
  <g class="3">
    <g class="backdrop">
      <path fill="#A2BAFF" d="M0 0h64v64H0z" class="A2BAFF"/>
    </g>
    <g class="character-shadow">
      <path d="M41 46v1h-2v1H27v-1h-2v-1h1v-1h14v1h1Z" class="shadow" opacity=".1"/>
    </g>
    <g class="token">
      <g class="NEAR">
        <path d="M39 14h-1v-1h2v1h-1Zm6 0v-1h-2v1h2Zm-2 0h-1v1h1v-1Zm2 0v7h1v-7h-1Zm-5 2h1v1h1v1h1v1h1v-3h-2v-1h-1v-1h-1v2Zm-2 3v-5h-1v7h1v-2Zm5 0h-1v-1h-1v-1h-1v-1h-1v3h2v1h1v1h1v-2Zm-3 2h1v-1h-1v1Zm-2 0v1h2v-1h-2Zm5 0v1h2v-1h-2Z" />
        <path fill="#fff" d="M40 15v1h-1v3h2v1h-1v1h-2v-7h2v1Zm4-1h-1v1h-1v1h2v3h-1v2h2v-7h-1Zm-4 2v1h1v-1h-1Zm1 1v1h1v-1h-1Zm1 1v1h1v-1h-1Z" />
      </g>
    </g>
    <g class="price-down">
      <path fill="#E35100" d="M46 20v2h-2v-1h1v-1h1Z" />
      <path d="M46 20h-1v-1h1v1Zm-1 0h-1v1h1v-1Zm-2 1v1h1v-1h-1Zm3-1v2h1v-2h-1Zm-2 2v1h2v-1h-2Z" />
    </g>
    <g class="price-up">
      <path fill="#49AA10" d="M46 20v2h-1v-1h-1v-1h2Z" />
      <path d="M45 20h-1v-1h2v1h-1Zm-2 0v1h1v-1h-1Zm3 0v2h1v-2h-1Zm-2 1v1h1v-1h-1Zm1 2h1v-1h-1v1Z" />
    </g>
    <g class="wizard">
      <g class="outline">
        <path d="M29 27h-1v-1h8v1h-7Zm-1 1v-1h-1v2h1v-1Zm8 1h1v-2h-1v2Zm1 2v5h-1v1h-1v1h1v2h1v-3h1v-8h-1v2Zm-9 7h1v-1h-1v-1h-1v-7h-1v8h1v2h1v-1Zm-1 2v-1h-1v3h1v-2Zm10 2h1v-2h-1v2Zm1 0v1h-2v-3h-1v5h1v-1h3v-2h-1Zm-10 1h1v-4h-1v3h-1v3h1v-2Zm4 2h-1v1h2v-1h-1Zm-3 1v-1h-1v2h3v-1h-2Zm6 0h-2v1h4v-2h-1v1h-1Z" class="outline"/>
      </g>
      <g class="staff">
        <g class="adept-staff">
          <path fill="#C2D2FF" d="M44 30v2h-1v-1h-1v-1h2Z" />
          <path fill="#A2FFF3" d="M44 29v1h-2v-1h2Zm0 1v2h1v-2h-1Z" class="pw-glow"/>
          <path fill="#A2BAFF" d="M43 31v1h-1v-1h1Zm0 1v1h1v-1h-1Z" />
          <path fill="#D3D3D3" d="M43 34v1h-1v-1h1Zm-2 3v1h1v-2h-1v1Zm-1 2v1h1v-2h-1v1Zm-1 2v1h1v-2h-1v1Zm-1 3v1h1v-2h-1v1Z" />
          <path fill="#797979" d="M42 35v1h-1v-1h1Zm-4 8h1v-1h-1v1Zm-1 3h1v-1h-1v1Z" />
          <path d="M46 29v3h-1v-2h-1v-1h-2v-1h3v1h1Zm-3 3h-1v-3h-1v6h1v-1h1v1h1v-2h-1v-1Zm1 1h1v-1h-1v1Zm-2 3v2h1v-3h-1v1Zm-1 1v-2h-1v3h1v-1Zm0 2v1h1v-2h-1v1Zm-1 0v-1h-1v2h1v-1Zm0 2v1h1v-2h-1v1Zm-1 0v-1h-1v2h1v-1Zm0 2v2h1v-3h-1v1Zm-1 1v-2h-1v3h1v-1Zm-1 1h-1v2h2v-1h-1v-1Zm1 1h1v-1h-1v1Z" />
        </g>
      </g>
      <g class="skin">
        <path fill="#D49E7A" d="M32 37h-1v-1h2v1h-1Zm-1 2h-1v1h1v-1Zm2 0v1h1v-1h-1Zm-1 5h1v-1h-1v1Zm-1 1h1v-1h-1v1Z" class="skin-details"/>
        <path fill="#ECC091" d="M36 38h-1v-1h1v-1h1v-7h-1v-2h-8v2h-1v7h1v1h1v1h-1v1h1v4h-1v2h1v1h2v-2h1v-1h1v1h-1v1h1v1h3v-1h-1v-5h1v-2Zm-7-7h1v1h-1v-1Zm6 1h-1v-1h1v1Zm-3 1h1v1h-2v-1h1Zm-1 3h2v1h-2v-1Zm-1 3h1v1h-1v-1Zm3 1v-1h1v1h-1Zm-6-1h1v3h-1v-3Zm11 3v1h-2v-3h1v2h1Z" class="skin-fill"/>
      </g>
      <g class="robe">
        <g class="chronomancer-robe">
          <path fill="#A2FFF3" d="M32 36h1v1h-1v-1Zm-1 1h1v1h-1v-1Zm2 0h1v1h-1v-1Z" class="pw-glow-66" opacity=".255"/>
          <path fill="#61D3E3" d="M33 37v2h-1v-2h1Z" class="pw-glow"/>
          <path fill="#7CB596" d="M27 36h1v1h-1v-1Zm2 1h1v1h-1v-1Zm7 0h1v1h-1v-1Zm-5 1h1v1h-1v-1Zm3 0h1v1h-1v-1Z" />
          <path fill="#305182" d="M29 37h-1v-1h1v1Zm7-1v1h1v-1h-1Zm-8 1h-1v1h1v-1Zm3 0h-1v1h1v-1Zm3 0v1h1v-1h-1Zm-5 1v1h1v-1h-1Zm7 0h-1v1h1v-1Zm-3 1h-3v1h5v-1h-2Zm-5 1h-1v1h1v-1Zm4 2h1v-1h-1v1Zm-2 1h1v-1h-1v1Zm4 0h1v-1h-1v1Zm2 0h1v-1h-1v1Zm-7 1h1v-1h-1v1Zm-1 1h1v-1h-1v1Z" />
          <path fill="#1B355D" d="M29 38v1h-1v-1h1Zm-2 2h1v-1h-1v1Zm3-1h-1v4h1v-1h1v-2h-1v-1Zm5 0v1h1v-1h-1Zm-3 2h1v-1h-1v1Zm2 0v1h1v-2h-1v1Zm2-1v2h1v-2h-1Zm-8 3v1h1v-1h-1Zm6 1h1v-1h-1v1Zm-5 0v1h2v-2h-1v1h-1Z" />
          <path fill="#7CB596" d="M33 42h-1v1h1v-1Zm0 1h-1v1h1v-1Zm0 1h-1v1h1v-1Z" />
          <path fill="#102340" d="M34 44h1v1h-1v-1Z" />
          <path fill="#A2FFCB" d="M26 36h1v1h-1v-1Zm11 0v1h1v-1h-1Zm-9 2h1v-1h-1v1Zm7 0h1v-1h-1v1Zm-5 1h1v-1h-1v1Zm3 0h1v-1h-1v1Zm0 6h-1v1h1v-1Z" />
          <path fill="#363636" d="M29 45h1v1h-1v-1Zm5 0h1v1h-1v-1Z" />
          <path fill="#1E1E1E" d="M27 41h1v1h-1v-1Zm10 1h1v1h-1v-1Zm-7 3h1v1h-1v-1Zm5 0h1v1h-1v-1Z" />
          <path fill="#667EA2" d="M29 36h1v1h-1v-1Zm6 0v1h1v-1h-1Zm-2 5v5h1v-6h-1v1Zm-1 3v-4h-1v6h1v-2Zm0 3h1v-1h-1v1Z" />
          <path d="M26 36v1h-1v-1h1Zm12 0v1h1v-1h-1Zm-12 2h1v-1h-1v1Zm11 0h1v-1h-1v1Zm-6 8v1h1v-1h-1Zm1 2h1v-1h-1v1Z" />
        </g>
      </g>
      <g class="beard">
        <g class="long-black-beard">
          <path fill="#797979" d="M29 31h-1v-1h1v1Zm5-1h-1v1h1v-1Zm2 2v1h-2v1h-1v1h-2v1h1v1h1v1h1v1h1v-2h1v-1h1v-4h-1Zm-7 1v1h1v-1h-1Zm-2 2h1v-1h-1v1Zm3-1v1h1v-1h-1Zm-1 2h1v-1h-1v1Zm2 2h1v-1h-1v1Zm-2 1h1v-1h-1v1Zm3 1h1v-1h-1v1Z" />
          <path fill="#363636" d="M37 29v2h-1v-1h-1v-1h-1v-1h-4v1h-1v1h-1v3h1v1h1v1h-1v1h1v-1h1v1h1v1h-1v1h1v-1h1v1h1v2h-1v-1h-1v1h1v2h-1v-1h-1v-1h-1v-2h-1v-1h-1v-1h-1v-1h1v-1h-1v-5h1v-2h8v2h1Zm-7 2v-1h-1v1h1Zm4 0h1v-1h-1v1Zm-1 2v-1h-2v1h2Zm-2 0h-1v1h1v-1Zm3 1v-1h-1v1h1Z" />
        </g>
      </g>
      <g class="face">
        <g class="normal">
          <path d="M29 31h1v1h-1v-1Zm5 0v1h1v-1h-1Zm-3 2v1h2v-1h-2Z" class="pw-eyes-mouth"/>
        </g>
      </g>
      <g class="hat">
        <g class="necromancer-hood">
          <path d="M39 27v9h-1v1h-2v1h-1v-2h1v-1h1v-5h-1v-2h-3v1h-1v-1h-3v2h-1v1h-1v4h1v1h1v2h-1v-1h-2v-1h-1v-1h-1v-5h-1v-1h-1v-2h1v-1h1v-1h1v-1h1v-1h2v-1h4v1h2v1h2v1h1v1h1v1h1Z" />
          <path fill="#797979" d="M35 26v1h-5v-1h-1v-1h-2v-1h1v-1h3v1h1v1h2v1h1Z" />
          <path fill="#623807" d="M37 27v1h-9v-1h9Zm-10 2h1v-1h-1v1Zm10-1v1h1v-1h-1Zm-11 2h1v-1h-1v1Z" />
          <path fill="#7B5D34" d="M38 29v1h-1v-1h1Zm-13 2h1v-1h-1v1Z" />
          <path fill="#306141" d="M36 25v1h-1v-1h1Zm-9 1v-1h-2v1h-1v1h-1v2h1v1h2v-1h1v-1h1v-1h1v-1h-2Zm9 0v1h1v-1h-1Zm1 1v1h1v-1h-1Zm-9 3v-1h-1v1h1Zm-2 1h-1v4h1v1h2v-1h-1v-5h-1v1Zm11 0v4h-1v1h2v-6h-1v1Z" />
          <path fill="#363636" d="M32 23v1h-1v-1h1Zm-6 1v1h1v-1h-1Zm7 0h-1v1h2v-1h-1Zm-5 1h-1v1h2v-1h-1Zm7 1v-1h-1v1h1Zm-6 1h1v-1h-1v1Zm7 0v-1h-1v1h1Zm-8 2v1h1v-2h-1v1Zm8-1v2h1v-2h-1Zm-9 3h1v-1h-1v1Zm1 6h1v-1h-1v1Zm7 0h1v-1h-1v1Z" />
          <path d="M32 22v1h-4v-1h4Zm-6 1v1h2v-1h-2Zm7 0h-1v1h2v-1h-1Zm-8 2h1v-1h-1v1Zm10-1h-1v1h2v-1h-1Zm-11 2h1v-1h-1v1Zm12-1v1h1v-1h-1Zm-13 2h1v-1h-1v1Zm14-1v1h1v-1h-1Zm-15 2v1h1v-2h-1v1Zm16-1v9h1v-9h-1Zm-14 3v-1h-1v1h1Zm0 2v3h1v-5h-1v2Zm2 4v-1h-1v1h1Zm1 1h1v-1h-2v1h1Zm9-1v1h2v-1h-2Zm-7 2v-1h-1v1h1Zm6 0h1v-1h-1v1Z" />
          <path fill="#CBF382" d="M34 27v1h-1v1h-1v-1h-1v-1h1v-1h1v1h1Z" />
          <path d="M32 27h1v1h-1v-1Z" class="pw-single-eye"/>
        </g>
      </g>
      <g class="pw-price-chat">
        <path d="M39 25h-1v-1h15v1H39Zm14 0v6h1v-6h-1Zm-15 4v-4h-1v6h1v-2Zm1 2h-1v1h1v-1Zm12 0H41v1h12v-1h-2Zm-13 1h-1v1h1v-1Zm2 1h1v-1h-1v1Zm-3 0h-1v2h2v-1h-1v-1Zm1 0v1h2v-1h-2Z" />
        <path fill="#FFFFEB" d="M53 25v6H41v1h-1v1h-2v-1h1v-1h-1v-6h15Zm-16 9h1v-1h-1v1Z" />
        <g class="pw-price">
          <path fill="#FFFFEB" d="M39 29.5V29h.5v.5H39Z" class="pw-price"/>
        </g>
        <g class="pw-digits">
          <path d="M39.5 29.2v-1.5H39v-.5h.5v-.5h.5v2.5h-.5Z" class="pw-digit-one"/>
          <path d="M40 27.2h-1v-.5h1v.5Zm0 1.5h.5v.5H39v-1h.5v.5h.5Zm-.5-.5v-.5h.5v-.5h.5v1h-1Z" class="pw-digit-two"/>
          <path d="M39.5 29.2H39v-.5h.5v-.5H39v-.5h.5v-.5H39v-.5h1v2.5h-.5Z" class="pw-digit-three"/>
          <path d="M40 29.2v-.5h-1v-1h.5v.5h.5v-.5h.5v1.5H40Zm0-1.5h-.5v-.5h.5v.5Zm0-.5v-.5h.5v.5H40Z" class="pw-digit-four"/>
          <path d="M40 28.2h-1v-1.5h1.5v.5h-1v.5h.5v.5Zm-.5.5h.5v.5h-1v-.5h.5Zm.5 0v-.5h.5v.5H40Z" class="pw-digit-five"/>
          <path d="M40 29.2h-1v-2.5h1.5v.5h-1v.5h1v1.5H40Zm0-.5v-.5h-.5v.5h.5Z" class="pw-digit-six"/>
          <path d="M40 27.7v-.5h-1v-.5h1.5v1H40Zm-1 1.5v-1h.5v1H39Zm.5-1v-.5h.5v.5h-.5Z" class="pw-digit-seven"/>
          <path d="M40 29.2h-1v-2.5h1.5v2.5H40Zm0-1.5v-.5h-.5v.5h.5Zm0 1v-.5h-.5v.5h.5Z" class="pw-digit-eight"/>
          <path d="M40 29.2h-1v-.5h1v-.5h-1v-1.5h1.5v2.5H40Zm0-1.5v-.5h-.5v.5h.5Z" class="pw-digit-nine"/>
          <path d="M40 29.2h-1v-2.5h1.5v2.5H40Zm0-.5v-1.5h-.5v1.5h.5Z" class="pw-digit-zero"/>
          <path d="M39 29.2v-.5h.5v.5H39Z" class="pw-point"/>
          <path d="M39 28.5V28h.5v.5H39Zm1 0V28h.5v.5H40Zm-.5 0V28h.5v.5h-.5Z" class="pw-minus"/>
        </g>
        <g class="pw-love">
          <path d="M39 29v-2h.4v2H39Zm2 0h-.4v-2h.4v1.6h.4v.4H41Zm1.2-.4h-.4v-1.2h.4v1.2Zm.8-1.2h-.8V27h.8v.4Zm-.4 1.2h.4v.4h-.8v-.4h.4Zm.4 0v-1.2h.4v1.2H43Zm1.2 0h-.4V27h.4v1.6Zm0 .4v-.4h.4v.4h-.4Zm.4-.4V27h.4v1.6h-.4Zm1.2.4h-.4v-2h.8v.4h-.4v.4h.4v.4h-.4v.4h.4v.4h-.4Zm2.1-.8h-.4V27h.4v1.2Zm0 .8v-.8h.4v.8h-.4Zm.4-.8V27h.4v1.2h-.4Zm1.2.4h-.4v-1.2h.4v1.2Zm.8-1.2h-.8V27h.8v.4Zm-.4 1.2h.4v.4h-.8v-.4h.4Zm.4 0v-1.2h.4v1.2h-.4Zm1.6.4h-.8v-2h.4v1.6h.4V27h.4v2h-.4Z" />
        </g>
        <g class="pw-oom">
          <path d="M39 29v-2h.474v2H39Zm.949-1.2V27h.474v.8h-.474Zm.949 1.2v-2h.949v.4h-.475V29h-.474Zm1.992 0v-1.6h-.569V29h-.474v-1.6h.474V27h.949v2h-.38Zm2.373-.4h-.475v-1.2h.475v1.2Zm.949-1.2h-.949V27h.949v.4Zm-.475 1.2h.475v.4h-.949v-.4h.474Zm.475 0v-1.2h.474v1.2h-.474Zm1.423 0h-.474v-1.2h.474v1.2Zm.949-1.2h-.949V27h.949v.4Zm-.475 1.2h.475v.4h-.949v-.4h.474Zm.475 0v-1.2h.474v1.2h-.474Zm.949.4v-2h.949v.4h-.475V29h-.474Zm1.992 0v-1.6h-.474V29h-.474v-1.6h.474V27H52v2h-.474Z" />
        </g>
      </g>
    </g>
    <g class="artifact">
      <g class="earth-element">
        <path fill="#714A16" d="M26 39v1h-2v1h-6v-1h-2v-5h1v-3h4v1h1v1h1v1h1v3h1v1h1Z" />
        <path d="M18 32h-1v-1h4v1h-3Zm4 1v-1h-1v1h1Zm1 1v-1h-1v1h1Zm-6 0v-2h-1v3h1v-1Zm7 1v-1h-1v1h1Zm0 2v1h1v-3h-1v2Zm2 2v-1h-1v1h1Zm0 0v1h-2v1h3v-2h-1Zm-4 2h-4v-1h-2v-5h-1v6h2v1h7v-1h-2Z" />
        <path fill="#A28870" d="M19 34v1h-1v-1h1Zm-2 2v2h1v-3h-1v1Z" />
        <path fill="#386D00" d="M21 32v1h-3v1h-1v-2h4Zm0 1v1h1v-1h-1Zm1 1v1h1v-1h-1Zm2 2v-1h-1v1h1Zm0 2v1h1v-1h-1Z" />
        <path fill="#7B5D34" d="M23 36v3h-1v1h-4v-1h-1v-1h1v-3h1v-1h2v1h1v1h1Z" />
        <path fill="#51A200" d="M21 33v1h-3v-1h3Zm-4 2h1v-1h-1v1Zm4-1v1h1v-1h-1Zm-5 2h1v-1h-1v1Zm6-1v1h1v-1h-1Zm1 2h1v-1h-1v1Zm2 2v1h1v-1h-1Z" />
        <path fill="#714A16" d="M18 39v1h-2v-4h1v3h1Zm6 0v-2h-1v2h-1v1h-4v1h6v-1h1v-1h-1Z" />
      </g>
    </g>
    <g class="pw-menu">
      <path fill="#363636" d="M14 54v4h-1v2h-1v1h-2v1H6v-1H4v-1H3v-2H2v-4h1v-2h1v-1h2v-1h4v1h2v1h1v2h1Zm48 0v4h-1v2h-1v1h-2v1h-4v-1h-2v-1h-1v-2h-1v-4h1v-2h1v-1h2v-1h4v1h2v1h1v2h1Z"  opacity=".749"/>
      <path d="M7 50H6v-1h4v1H7Zm49 0h2v-1h-4v1h2ZM6 51v-1H4v1h2Zm5 0h1v-1h-2v1h1Zm43 0v-1h-2v1h2Zm5 0h1v-1h-2v1h1ZM4 51H3v1h1v-1Zm9 1v-1h-1v1h1Zm39-1h-1v1h1v-1Zm9 1v-1h-1v1h1ZM3 53v-1H2v2h1v-1Zm10 1h1v-1h36v1h1v-2H13v2Zm48 0h1v-2h-1v2Zm1 0v4h1v-4h-1ZM2 56v-2H1v4h1v-2Zm1 2H2v2h1v-2Zm10 1v1h1v-2h-1v1Zm48 0v1h1v-2h-1v1Zm-11 1h1v-2h-1v2ZM3 60v1h1v-1H3Zm9 1h1v-1h-1v1Zm37-1v-2h1v-4H14v4h1v4h1v-7h7v7h1v-7h8v3h1v-3h7v7h1v-7h7v7h1v-2Zm3 1v-1h-1v1h1Zm8 0h1v-1h-1v1ZM5 61H4v1h2v-1H5Zm27 0v-2h-1v3h1v-1Zm21 0h-1v1h-3v1h4v-1h1v-1h-1Zm5 0v1h2v-1h-2ZM8 62H6v1h4v-1H8Zm5 0h-1v-1h-2v1h1v1h4v-1h-2Zm8 0h-5v1h7v-1h-2Zm4 1h6v-1h-7v1h1Zm13-1h-5v1h7v-1h-2Zm8 0h-5v1h7v-1h-2Zm10 0h-2v1h4v-1h-2Z" />
      <path fill="#363636" d="M48 53v1H14v-1h34Z" />
      <path fill="#202020" d="M32 58h1v4h-1v-3h-1v-4h1v3Zm17-5v1h1v-1h-1Z" />
      <path fill="#262626" d="M49 53v1h-1v-1h1Zm-35 5h1v4h-3v-1h1v-1h1v-2Zm37 3v-1h-1v-2h-1v4h3v-1h-1Z" />
      <g class="pw-menu-mana">
        <path fill="#5182FF" d="M54 53v2h-1v1h-1v1h-1v-2h1v-1h1v-1h1Z" />
        <path fill="#4161FB" d="M59 52h-8v2h-1v4h1v2h1v1h2v1h1v-1h2v-1h1v-1h1v-2h1v-5h-1Zm-8 4v-1h1v-1h1v-1h1v2h-1v1h-1v1h-1v-1Z" />
        <path fill="#4141FF" d="M62 54v4h-1v2h-1v1h-2v1h-3v-1h2v-1h1v-1h1v-2h1v-5h1v2h1Z" />
      </g>
      <g class="pw-menu-health">
        <path fill="#F04F6F" d="M13 55v2h-1v-1h-1v-1h-1v-2h1v1h1v1h1Z" />
        <path fill="#B21030" d="M9 61v1H6v-1H4v-1H3v-2H2v-4h1v-2h1v5h1v2h1v1h1v1h2Z" />
        <path fill="#E2254A" d="M13 54v-2H4v5h1v2h1v1h1v1h2v1h1v-1h2v-1h1v-2h1v-4h-1Zm0 2v1h-1v-1h-1v-1h-1v-2h1v1h1v1h1v1Z" />
      </g>
      <g class="pw-menu-exp">
        <path fill="#61D3E3" d="M26 53H14v1h13v-1h-1Z" />
        <path fill="#A2FFF3" d="M27 53h1v1h-1v-1Z" />
      </g>
      <g class="pw-menu-toggle">
        <path fill="#363636" d="M48 57v3h-1v1h-1v1h-3v-1h-1v-1h-1v-3h1v-1h1v-1h3v1h1v1h1Z" />
        <path fill="#262626" d="M42 56h1v-1h-1v1Zm4-1v1h1v-1h-1Zm-5 2h1v-1h-1v1Zm6 0h1v-1h-1v1Zm-6 3v1h1v-1h-1Zm6 1h1v-1h-1v1Zm-5 1h1v-1h-1v1Zm4 0h1v-1h-1v1Z" />
        <path fill="#202020" d="M41 55h1v1h-1v-1Zm6 1h1v-1h-1v1Zm-6 6h1v-1h-1v1Zm6 0h1v-1h-1v1Z" />
        <path d="M44 59h1v-1h-1v1Z" />
        <path fill="#B2B2B2" d="M42 58h1v1h-1v-1Zm4 0h1v1h-1v-1Z" />
        <path fill="#fff" d="M43 58h1v1h-1v-1Zm2 0h1v1h-1v-1Z" />
        <path fill="#B2B2B2" d="M46 57v1h-3v-1h3Z" class="pw-eye-lid-top"/>
        <path fill="#B2B2B2" d="M46 59v1h-3v-1h3Z" />
      </g>
      <g class="pw-menu-toggle-hat">
        <path fill="#95B3FF" d="M23 57v3h-1v1h-1v1h-3v-1h-1v-1h-1v-3h1v-1h1v-1h3v1h1v1h1Z" />
        <g >
          <path fill="#4141FF" d="M22 59h-1v1h1v-1Zm-1-1h-1v1h1v-1Z"/>
          <path fill="#FFDBA2" d="M21 59h-1v1h1v-1Z"/>
          <path fill="#4141FF" d="M20 59h-1v1h1v-1Zm-1 0h-1v1h1v-1Z"/>
          <path fill="#4161FB" d="M19 58h1v1h-1v-1Zm-1 1h-1v1h1v-1Z"/>
          <path fill="#4141FF" d="M19 56h-1v1h1v-1Z"/>
          <path fill="#FFDBA2" d="M19 58h-1v1h1v-1Z"/>
          <path fill="#4141FF" d="M20 57h-1v1h1v-1Z"/>
          <path fill="#4161FB" d="M19 57h-1v1h1v-1Z"/>
        </g>
        <path fill="#799AEF" d="M17 56h1v-1h-1v1Zm4-1v1h1v-1h-1Zm-5 2h1v-1h-1v1Zm6 0h1v-1h-1v1Zm-6 3v1h1v-1h-1Zm6 1h1v-1h-1v1Zm-5 1h1v-1h-1v1Zm4 0h1v-1h-1v1Z" />
        <path fill="#3964D2" d="M16 55h1v1h-1v-1Zm6 1h1v-1h-1v1Zm-6 6h1v-1h-1v1Zm6 0h1v-1h-1v1Z" />
      </g>
      <g class="pw-skill-tell-price">
        <path fill="#897721" d="M36 57v1h-1v-2h1v-1h1v1h1v1h-2Zm1 2v-1h-1v1h1Zm-1 1h-1v1h1v1h1v-1h1v-2h-1v1h-1Z" />
        <path fill="#A3922C" d="M33 55h1v1h-1v-1Zm6 0v1h1v-1h-1Zm-6 7h1v-1h-1v1Zm6 0h1v-1h-1v1Z" />
        <path fill="#C1A710" d="M34 55h1v1h-1v-1Zm4 0v1h1v-1h-1Zm-5 2h1v-1h-1v1Zm6-1v1h1v-1h-1Zm-6 4v1h1v-1h-1Zm6 1h1v-1h-1v1Zm-5 1h1v-1h-1v1Zm4 0h1v-1h-1v1Z" />
        <path fill="#FFF392" d="M36 59h1v1h-2v-1h-1v-1h-1v-1h2v1h1v1Zm3 0v-1h-1v-1h-2v1h1v1h1v1h2v-1h-1Z" />
        <path fill="#FFE100" d="M35 55h1v1h-1v-1Zm2 0v1h1v-1h-1Zm-3 2h1v-1h-1v1Zm5 0v-1h-1v2h1v1h1v-2h-1Zm-4 2h-1v-1h-1v2h1v1h1v-2Zm3 2h1v-1h-1v1Zm-3 1h1v-1h-1v1Zm2 0h1v-1h-1v1Z" />
      </g>
      <g class="pw-skill-cast-spell">
        <path fill="#569B9C" d="M24 57h1v3h-1v-3Zm6 0v3h1v-3h-1Z" />
        <path fill="#E2AF9F" d="M29 56v1h-3v-1h3Zm-3 3v1h1v-1h-1Zm2 1h1v-1h-1v1Zm-1 1h1v-1h-1v1Z" />
        <path fill="#A8C7C0" d="M30 56v4h-1v-4h1Zm-3 6h1v-1h-1v1Zm-2-5v3h1v-4h-1v1Zm3-2h-2v1h3v-1h-1Z" />
        <path fill="#FFCBBA" d="M28 58h-1v-1h1v1Zm-2 0v1h1v-1h-1Zm3 1v-1h-1v1h1Zm-2 0v1h1v-1h-1Zm-2 1v1h1v1h1v-2h-2Zm4 0h-1v2h1v-1h1v-1h-1Z" />
        <path fill="#628B9C" d="M25 55h1v1h-1v-1Zm4 0h1v1h-1v-1Zm-5 1h1v1h-1v-1Zm6 0h1v1h-1v-1Zm-6 4h1v1h-1v-1Zm6 0h1v1h-1v-1Zm-5 1h1v1h-1v-1Zm4 0h1v1h-1v-1Z" />
        <path fill="#486770" d="M24 55h1v1h-1v-1Zm6 0h1v1h-1v-1Zm-6 6h1v1h-1v-1Zm6 0h1v1h-1v-1Z"  opacity=".988"/>
        <path fill="#A2FFF3" d="M26 57h1v1h-1v-1Zm2 0h1v1h-1v-1Zm-1 1h1v1h-1v-1Z" />
      </g>
    </g>
  </g>
  <script type="text/javascript">
    <![CDATA[
      let root=document.getElementById("pxlwz");if(root){let pwRoot=root,pwBg=pwRoot.querySelector(".backdrop"),pwWizard=pwRoot.querySelector(".wizard"),pwToken=pwRoot.querySelector(".token").firstElementChild.className.baseVal,pwDigits=pwRoot.querySelector(".pw-digits"),pwPrice=pwRoot.querySelector(".pw-price"),pwMenuToggle=pwRoot.querySelector(".pw-menu-toggle"),pwMenuToggleHat=pwRoot.querySelector(".pw-menu-toggle-hat"),pwSkillTellPrice=pwRoot.querySelector(".pw-skill-tell-price"),pwSkillCastSpell=pwRoot.querySelector(".pw-skill-cast-spell"),pwSoundsBaseUri="https://ipfs.io/ipfs/bafybeict4pv4dc3ab5hqtdlqmg6fotpzbxkvxsfutdurks5cd6afvvw4ka/sounds",bgColor=pwBg.firstElementChild.getAttribute("fill");function toggleFullscreen(elem){let element=elem,isFullscreen=document.webkitIsFullScreen||document.mozFullScreen||!1;element.requestFullScreen=element.requestFullScreen||element.webkitRequestFullScreen||element.mozRequestFullScreen||function(){return!1},document.cancelFullScreen=document.cancelFullScreen||document.webkitCancelFullScreen||document.mozCancelFullScreen||function(){return!1},isFullscreen?document.cancelFullScreen():element.requestFullScreen()}var startTime,endTime;pwRoot.style.backgroundColor=bgColor,document.addEventListener("keypress",(e=>{"r"===e.key&&toggleMenu(0)})),pwMenuToggle.addEventListener("click",(()=>{toggleMenu(0)})),pwMenuToggleHat.addEventListener("click",(()=>{removeHat()})),document.addEventListener("keypress",(e=>{"q"===e.key&&removeHat()})),pwSkillCastSpell.addEventListener("click",(()=>{castSpell()})),document.addEventListener("keypress",(e=>{"w"===e.key&&castSpell()})),pwSkillTellPrice.addEventListener("click",(()=>{tellPrice("e")})),document.addEventListener("keypress",(e=>{["e","1","2","3"].includes(e.key)&&tellPrice(e.key)})),document.addEventListener("keypress",(e=>{"f"===e.key&&toggleFullscreen(pwRoot)}));var gbMove=!1;window.addEventListener("touchstart",(function(event){startTime=(new Date).getTime(),gbMove=!1}),!1),window.addEventListener("touchmove",(function(event){gbMove=!0}),!1),window.addEventListener("touchend",(function(event){endTime=(new Date).getTime(),!gbMove&&(endTime-startTime)/1e3>.5&&toggleMenu(0)}),!1);let toggleMenu=function(move){playAudio("/r.wav"),move?move>0?pwRoot.classList.add("pw-menu-in"):pwRoot.classList.remove("pw-menu-in"):pwRoot.classList.toggle("pw-menu-in")},removeHat=function(){playAudio("/q.wav"),pwRoot.classList.toggle("hat-gone")},castSpell=function(){pwRoot.classList.contains("cast-spell")?playAudio("/w2.wav"):playAudio("/w1.wav"),pwRoot.classList.toggle("cast-spell")},playAudio=function(url){new Audio(pwSoundsBaseUri+url).play()},tellPrice=function(keyPressed){if(pwRoot.className.baseVal.toLowerCase().indexOf("tell-price")<0){fetch("https://api.pixelwizards.art/v1/knowledge/"+pwToken,{method:"GET",redirect:"follow"}).then((response=>response.json())).then((data=>{switch(playAudio("/e.wav"),keyPressed){case"e":default:priceValue="price";break;case"1":priceValue="priceHigh";break;case"2":priceValue="priceLow";break;case"3":priceValue="changePer"}let price=Number(data[priceValue]),percentageChange=Number(data.changePer),UpOrDown=data.changePer>0?"up":"down";pwRoot.classList.add("tell-price",UpOrDown);let fPrice=price>=1e4?price.toFixed(0):price>=1e3?price.toFixed(1):price>=100?price.toFixed(2):price.toFixed(3);console.log("*Conjures information from the book of knowledge*"),console.log('Wizard: "The current '+pwToken+" "+priceValue+" is "+fPrice+" and "+pwToken+" is "+UpOrDown+" "+percentageChange.toFixed(2)+'% in the past 24 hours."');let digits=String(fPrice).split(""),digitsL=digits.length;pwPrice.replaceChildren();for(let i=0;i<=digitsL;i++)switch(digits[i]){case"0":pwPrice.appendChild(pwDigits.querySelector(".pw-digit-zero").cloneNode(!0));break;case"1":pwPrice.appendChild(pwDigits.querySelector(".pw-digit-one").cloneNode(!0));break;case"2":pwPrice.appendChild(pwDigits.querySelector(".pw-digit-two").cloneNode(!0));break;case"3":pwPrice.appendChild(pwDigits.querySelector(".pw-digit-three").cloneNode(!0));break;case"4":pwPrice.appendChild(pwDigits.querySelector(".pw-digit-four").cloneNode(!0));break;case"5":pwPrice.appendChild(pwDigits.querySelector(".pw-digit-five").cloneNode(!0));break;case"6":pwPrice.appendChild(pwDigits.querySelector(".pw-digit-six").cloneNode(!0));break;case"7":pwPrice.appendChild(pwDigits.querySelector(".pw-digit-seven").cloneNode(!0));break;case"8":pwPrice.appendChild(pwDigits.querySelector(".pw-digit-eight").cloneNode(!0));break;case"9":pwPrice.appendChild(pwDigits.querySelector(".pw-digit-nine").cloneNode(!0));break;case".":pwPrice.appendChild(pwDigits.querySelector(".pw-point").cloneNode(!0));break;case"-":pwPrice.appendChild(pwDigits.querySelector(".pw-minus").cloneNode(!0))}for(let i=0;i<digitsL;i++){let translate="."==digits[i-1]||"."==digits[i-2]||"."==digits[i-3]?2*i-1:2*i;pwPrice.childNodes[i].style.transform="translateX("+translate+"px)"}let centerPrice=digitsL>5?1:2;pwPrice.style.transform="translateX("+centerPrice+"px)"})).catch((error=>{console.log("Out of mana."),pwRoot.classList.add("oom"),playAudio("/err.wav"),console.log(error)})),setTimeout((()=>{pwRoot.classList.remove("tell-price","down","up")}),1e4)}};var valentinesDay={month:1,date:14},aprilFoolsDay={month:3,date:1},nationalNudeDay={month:6,date:14},baldIsBeautifulDay={month:8,date:13},shortPersonDay={month:11,date:22},colorblindDay={month:8,date:6},worldSightDay={month:9,date:12};let eventDay=function(value){var now=new Date;return now.getMonth()==value.month&&now.getDate()==value.date};eventDay(valentinesDay)&&(pwRoot.querySelector(".pw-love").style.opacity="1",pwRoot.querySelector(".pw-price-chat").style.opacity="1",console.log("You are wand-erful")),eventDay(aprilFoolsDay)&&(pwWizard.style.display="none",console.log("NFT DELETED...")),eventDay(nationalNudeDay)&&(pwRoot.querySelector(".robe").style.opacity="0",console.log("Let's celebrate National Nude day!")),eventDay(baldIsBeautifulDay)&&(pwRoot.querySelector(".beard").style.opacity="0",console.log("I Shaved my head and beard beacuse it's Bald Is Beautiful day!")),eventDay(shortPersonDay)&&(pwWizard.style.transform="scale(.7) translate(14px, 20px)",console.log("I transformed myself to a someone small sized, let's celebrate short person day!")),eventDay(colorblindDay)&&(pwRoot.style.filter="grayscale(1)",pwBg.firstElementChild.style.fill="grey",pwRoot.style.backgroundColor="grey",console.log("Let's be aware of those who can't see our beautiful colors!")),eventDay(worldSightDay)&&(pwRoot.style.filter="blur(20px)",console.log("Let's be aware of those who can't see true or anything at all!"));let pwHatOfTime=pwRoot.querySelector(".hat-of-time"),pwSortingHat=pwRoot.querySelector(".sorting-hat"),pwCameratBtn=pwRoot.querySelector(".pw-camera-btn"),pwLightBulb=pwRoot.querySelector(".pw-bulb-off"),pwLightsaber=pwRoot.querySelector(".lightsaber"),pwCloak=pwRoot.querySelector(".cloak"),pwLute=pwRoot.querySelector(".lute"),pwElf=pwRoot.querySelector(".elf-ears"),pwAged=pwRoot.querySelector(".wrinkles"),pwSatellite=pwRoot.querySelector(".network-satellite");if(pwHatOfTime){let handHour=pwHatOfTime.querySelector(".pw-hour-hand"),handMinute=pwHatOfTime.querySelector(".pw-minute-hand"),d=new Date,m=d.getMinutes(),h=d.getHours();switch(!0){case m>=0&&m<15:handMinute.style.transform="translate(0, 0)";break;case m>=15&&m<30:handMinute.style.transform="translate(1px, 1px)";break;case m>=30&&m<45:handMinute.style.transform="translate(0px, 2px)";break;case m>=45&&m<60:handMinute.style.transform="translate(-1px, 1px)"}switch(!0){case h>=0&&h<3||h>=12&&h<15:handHour.style.transform="translate(-1px, -1px)";break;case h>=3&&h<6||h>=15&&h<18:handHour.style.transform="translate(0, 0)";break;case h>=6&&h<9||h>=18&&h<21:handHour.style.transform="translate(-1px, 1px)";break;case h>=9&&h<12||h>=21&&h<24:handHour.style.transform="translate(-2px, 0px)"}}if(pwSortingHat&&pwSortingHat.addEventListener("click",(()=>{pwRoot.classList.toggle("sh-talking"),setTimeout((()=>{pwRoot.classList.remove("sh-talking")}),18e3)})),pwCameratBtn&&pwCameratBtn.addEventListener("click",(()=>{pwWizard.classList.toggle("flash"),playAudio("/r.wav"),setTimeout((()=>{pwWizard.classList.remove("flash")}),200)})),pwLightBulb&&pwLightBulb.addEventListener("click",(()=>{pwLightBulb.classList.toggle("bulb-on")})),pwLightsaber){pwRoot.querySelector(".pw-saber-button").addEventListener("click",(()=>{pwLightsaber.classList.toggle("saber-on"),pwLightsaber.classList.contains("saber-on")&&playAudio("/ls.wav")}))}if(pwCloak&&pwWizard.addEventListener("click",(()=>{let bufferArray=[],lastKeystrokeTime=Date.now();const cheatcode=e=>{const key=e.key.toLowerCase(),latestKeystrokeTime=Date.now();latestKeystrokeTime-lastKeystrokeTime>1500&&(bufferArray=[]),bufferArray.push(key);"vanish"===bufferArray.join("")&&(pwRoot.classList.add("vanished"),setTimeout((()=>{pwRoot.classList.remove("vanished")}),1e4),clearListener()),lastKeystrokeTime=latestKeystrokeTime};document.addEventListener("keyup",cheatcode,!0);const clearListener=()=>{document.removeEventListener("keyup",cheatcode,!0)}})),pwLute){let pwStringF=pwRoot.querySelector(".string-F"),pwStringC=pwRoot.querySelector(".string-C");pwRoot.querySelector(".string-G").addEventListener("click",(()=>{var context=new AudioContext;o=context.createOscillator(),g=context.createGain(),o.type="triangle",o.connect(g),o.frequency.value=196,g.connect(context.destination),o.start(0),g.gain.exponentialRampToValueAtTime(1e-5,context.currentTime+1)})),pwStringC.addEventListener("click",(()=>{var context=new AudioContext;o=context.createOscillator(),g=context.createGain(),o.type="triangle",o.connect(g),o.frequency.value=261.6,g.connect(context.destination),o.start(0),g.gain.exponentialRampToValueAtTime(1e-5,context.currentTime+1)})),pwStringF.addEventListener("click",(()=>{var context=new AudioContext;o=context.createOscillator(),g=context.createGain(),o.type="triangle",o.connect(g),o.frequency.value=349.2,g.connect(context.destination),o.start(0),g.gain.exponentialRampToValueAtTime(1e-5,context.currentTime+1)}))}if(pwElf){let pwSkinColor=pwRoot.querySelector(".skin-fill").getAttribute("fill");pwElf.style.fill=pwSkinColor}if(pwAged){let pwSkinDetailsColor=pwRoot.querySelector(".skin-details").getAttribute("fill");pwAged.style.fill=pwSkinDetailsColor}pwSatellite&&pwSatellite.addEventListener("click",(()=>{pwRoot.classList.add("network-engaged");if(confirm("Beam me up, Scotty! Take me to the Network.")){window.open('https://pixelwizards.art/initnetwork/?initializeSequencer=allowed','_blank',);}}))}
    ]]>
  </script>
</svg>
